<?xml version="1.0" encoding="utf-8"?>
<!-- Generator: Adobe Illustrator 19.1.0, SVG Export Plug-In . SVG Version: 6.00 Build 0)  -->
<svg version="1.1" id="Layer_1" xmlns="http://www.w3.org/2000/svg" xmlns:xlink="http://www.w3.org/1999/xlink" x="0px" y="0px"
	 viewBox="0 0 423 65" style="enable-background:new 0 0 423 65;" xml:space="preserve">
<style type="text/css">
	.st0{fill:#FFFFFF;}
</style>
<g>
	<path class="st0" d="M201.6,52.2c0,1.3-0.5,2.5-1.4,3.4c-1,1-2.1,1.4-3.4,1.4s-2.5-0.5-3.4-1.4s-1.4-2.1-1.4-3.4V18h-19.5v34.2
		c0,1.3-0.5,2.5-1.4,3.4s-2.1,1.4-3.4,1.4s-2.5-0.5-3.4-1.4s-1.4-2.1-1.4-3.4v-0.3V18H143v33.9v0.3c0,1.3-0.5,2.5-1.4,3.4
		s-2.1,1.4-3.4,1.4s-2.5-0.5-3.4-1.4s-1.4-2.1-1.4-3.4V8.2h63.2h0.3c1.3,0,2.5,0.5,3.4,1.5c0.3,0.3,0.6,0.7,1,1.3l0.4,2.1v0.3V52.2z
		"/>
	<path class="st0" d="M222.5,27.8h0.3h33.9V18h-34.2c-1.3,0-2.5-0.5-3.4-1.4s-1.4-2.1-1.4-3.4s0.5-2.5,1.4-3.4s2.1-1.4,3.4-1.4h0.3
		h38.5h0.3c1.3,0,2.5,0.5,3.4,1.4s1.4,2.1,1.4,3.4v0.3v43.7h-43.9c-1.3,0-2.5-0.5-3.4-1.4s-1.4-2.1-1.4-3.4V32.7
		c0-1.3,0.5-2.5,1.4-3.4S221.1,27.8,222.5,27.8z M227.3,47.3h29.3v-9.8h-29.3V47.3z"/>
	<path class="st0" d="M326.4,18h-0.3h-33.9v34.2c0,1.3-0.5,2.5-1.4,3.4s-2.1,1.4-3.4,1.4s-2.5-0.5-3.4-1.4s-1.4-2.1-1.4-3.4v-0.3
		V8.2h43.7h0.3c1.3,0,2.5,0.5,3.4,1.4s1.4,2.1,1.4,3.4s-0.5,2.5-1.4,3.4S327.7,18,326.4,18z"/>
	<path class="st0" d="M417.3,46.7c-1.5,0-2.9-0.6-4-1.7c-1.1-1.1-1.7-2.4-1.7-4v-0.3l0.1-33.6c0-1.5,0.6-2.9,1.7-4
		c1.1-1.1,2.4-1.7,4-1.7c1.5,0,2.9,0.6,4,1.7c1.1,1.1,1.7,2.4,1.7,4v0.3L422.9,41c0,1.5-0.6,2.9-1.7,4
		C420.2,46.1,418.8,46.7,417.3,46.7z M417.3,64.3c-1.5,0-2.9-0.6-4-1.7c-1.1-1.1-1.7-2.4-1.7-4c0-1.5,0.6-2.9,1.7-4
		c1.1-1.1,2.4-1.7,4-1.7c1.5,0,2.9,0.6,4,1.7c1.1,1.1,1.7,2.4,1.7,4c0,1.5-0.6,2.9-1.7,4C420.2,63.8,418.9,64.3,417.3,64.3z"/>
	<rect x="78" y="18" class="st0" width="29" height="10"/>
	<path class="st0" d="M119.5,0H0v59.4C0,62.5,2.2,65,5.3,65H125V6C125,2.8,122.7,0,119.5,0z M55,16.6c-1,1-2.1,1.4-3.4,1.4h-0.3H17
		v34.2c0,1.3-0.3,2.5-1.2,3.4c-1,1-2,1.4-3.3,1.4c-1.3,0-2.2-0.5-3.2-1.4c-1-1-1.2-2.1-1.2-3.4v-0.3V8h43.3h0.3
		c1.3,0,2.5,0.6,3.4,1.6c1,1,1.4,2.2,1.4,3.5S56,15.6,55,16.6z M117,13.4v18.9v0.3c0,1.3-0.4,2.7-1.3,3.7c-1,1-2,1.7-3.3,1.7H112H78
		v9h34.3c1.3,0,2.5,0.6,3.4,1.6c1,1,1.4,2.2,1.4,3.5s-0.5,2.5-1.4,3.4c-1,1-2.1,1.4-3.4,1.4H73.6h-0.3c-1.3,0-2.7-0.4-3.6-1.4
		c-1-1-1.6-2.1-1.6-3.4V13.1c0-1.3,0.7-2.6,1.6-3.6c1-1,2.3-1.6,3.6-1.6h0.3h38.8c1.3,0,2.4,0.6,3.3,1.6c1,1,1.3,2.2,1.3,3.6V13.4z"
		/>
	<g>
		<line class="st0" x1="390.4" y1="51.8" x2="371.1" y2="33.5"/>
		<path class="st0" d="M377.9,33.1l16.3-16.4c2-1.9,2-5.1,0-7.1h0c-1.9-2-5.1-2-7.1,0l-30,30.4l0.1-27.1c0-2.8-2.3-5-5.1-5
			c-2.8,0-5.1,2.2-5.1,5v38.7v0.3c0,0,0,0.2,0,0.2c0,1.4,0.7,2.4,1.6,3.3s2.1,1.4,3.5,1.4c1.4,0,2.5-0.5,3.5-1.4l15.3-15.3
			l16.1,15.3c1,0.9,2.2,1.4,3.4,1.4c1.3,0,2.6-0.5,3.6-1.6c1.9-2,1.8-5.2-0.2-7.1L377.9,33.1z"/>
	</g>
</g>
</svg>
